<?xml version="1.0" encoding="utf-8"?>
<!-- Generator: Adobe Illustrator 17.0.0, SVG Export Plug-In . SVG Version: 6.00 Build 0)  -->
<!DOCTYPE svg PUBLIC "-//W3C//DTD SVG 1.1//EN" "http://www.w3.org/Graphics/SVG/1.1/DTD/svg11.dtd">
<svg version="1.1" id="Layer_1" xmlns="http://www.w3.org/2000/svg" xmlns:xlink="http://www.w3.org/1999/xlink" x="0px" y="0px"
	 width="345px" height="500px" viewBox="0 0 345 500" enable-background="new 0 0 345 500" xml:space="preserve">
<g>
	<g>
		<path d="M175.147-1.793c2.364,4.381,7.196,5.549,10.878,8.174c5.909,4.213,12.197,7.917,18.39,11.689
			c13.09,7.973,26.006,16.216,39.032,24.287c9.903,6.136,19.789,12.298,29.593,18.597c6.49,4.17,13.103,8.191,19.708,12.203
			c5.309,3.225,5.863,11.216,0.63,14.383c-8.481,5.134-16.596,10.858-25.348,15.555c-2.226,1.195-4.328,2.679-6.315,4.248
			c-1.99,1.571-3.984,1.44-5.873,0.25c-10.3-6.485-20.406-13.289-30.85-19.53c-8.422-5.033-16.612-10.423-25.004-15.495
			c-5.361-3.24-10.318-7.265-15.932-9.941c-6.404-3.052-13.012-5.115-20.379-1.135c-12.454,6.728-24.143,14.633-36.135,22.074
			c-6.315,3.919-12.77,7.611-19.074,11.546c-6.412,4.003-12.745,8.137-19.054,12.301c-2.274,1.501-3.99,1.512-6.452-0.143
			c-7.509-5.047-15.321-9.643-22.996-14.446c-3.62-2.265-7.625-4.074-10.429-7.397c-3.266-3.87-2.061-9.458,2.242-12.167
			c6.9-4.343,13.762-8.794,20.722-12.986c6.049-3.645,12.087-7.417,18.124-11.079c7.224-4.383,14.484-8.793,21.491-13.577
			c6.045-4.127,12.426-7.76,18.643-11.636c7.727-4.817,15.49-9.578,23.137-14.52c4.885-3.157,10.12-5.76,14.727-9.375
			c0.735-0.576,2.123-0.336,3.213-0.439c0.957-0.091,2.187,0.234,1.969-1.444C174.251-1.793,174.699-1.793,175.147-1.793z"/>
		<path d="M300.85,501.161c-14.98-19.236-29.972-38.463-44.935-57.712c-11.192-14.396-22.305-28.854-33.565-43.196
			c-1.656-2.109-1.539-3.446,0.128-5.471c25.671-31.188,51.278-62.429,76.833-93.712c1.419-1.737,2.85-2.412,5.072-2.419
			c12.647-0.041,25.294-0.239,37.941-0.379c1.213-0.013,2.454-0.219,3.584,0.446c0,0.448,0,0.896,0,1.345
			c-1.455,3.871-4.482,6.643-7.029,9.695c-23.305,27.939-46.423,56.032-69.699,83.994c-3.126,3.755-3.024,3.726-0.013,7.6
			c16.563,21.311,33.23,42.541,49.833,63.821c8.129,10.42,16.257,20.84,24.371,31.271c1.051,1.35,2.609,2.581,1.812,4.686
			c-6.245,0.613-12.497,0.164-18.742,0.254c-5.701,0.082-11.404,0.018-17.105,0.018c-1.434,0-2.87,0.001-4.305,0
			C303.639,501.292,302.22,501.648,300.85,501.161z"/>
		<path fill="#F7F7F7" d="M345.187,499.749c0.24-0.006,0.48-0.012,0.72-0.018c0.335,1.68-0.335,2.074-2.017,2.062
			c-11.652-0.085-23.306-0.045-34.958-0.045c-0.22-0.127-0.292-0.252-0.218-0.377c0.074-0.124,0.147-0.186,0.222-0.186
			c11.186-0.139,22.372-0.255,33.557-0.458C343.399,500.71,344.854,501.581,345.187,499.749z"/>
		<path fill="#E2E2E2" d="M-0.407,300.749l-0.292,0.005l-0.292-0.019c0-0.672,0-1.345,0-2.017c0.95,0.033,1.9,0.066,2.85,0.099
			C1.654,300.107,0.542,300.332-0.407,300.749z"/>
		<path fill="#E2E2E2" d="M300.85,501.161c1.352,0.006,2.704,0.013,4.056,0.02c0.213,0.129,0.282,0.256,0.209,0.381
			c-0.072,0.124-0.144,0.186-0.217,0.186c-1.345,0-2.689,0-4.034,0C300.853,501.552,300.848,501.357,300.85,501.161z"/>
		<path fill="#F0F0F0" d="M304.898,501.748c-0.001-0.189,0.001-0.378,0.008-0.567c1.343,0.002,2.687,0.003,4.03,0.005
			c-0.003,0.188-0.004,0.375-0.005,0.563C307.587,501.748,306.243,501.748,304.898,501.748z"/>
		<path d="M-0.407,300.749c-0.239-1.811,1.32-1.512,2.266-1.932c11.424-0.05,22.851,0.013,34.272-0.227
			c3.066-0.064,4.629,0.787,5.988,3.661c18.867,39.9,37.882,79.73,56.861,119.577c0.383,0.804,0.771,1.605,1.187,2.471
			c1.496-0.63,1.61-2.128,2.138-3.242c18.731-39.469,37.445-78.947,56.042-118.479c1.235-2.624,2.622-3.475,5.5-3.432
			c12.201,0.184,24.407,0.078,36.586,0.078c0.34,1.315-0.465,2.081-0.891,2.935c-32.191,64.505-64.396,129.003-96.632,193.485
			c-0.581,1.162-0.673,2.849-2.825,2.73c-1.785-0.098-2.201-1.302-2.783-2.464C64.763,430.966,32.234,366.016-0.294,301.065
			C-0.343,300.966-0.37,300.855-0.407,300.749z"/>
		<path d="M173.382,234.935c-3.004-0.127-4.963-1.115-6.701-2.197c-10.339-6.44-20.552-13.082-30.858-19.576
			c-8.115-5.114-16.303-10.112-24.46-15.161c-10.206-6.317-20.34-12.75-30.504-19.131c-8.225-5.164-16.47-10.315-24.791-15.331
			c-1.585-0.955-3.1-2.035-4.722-2.955c-3.994-2.266-4.112-10.018-0.475-13.089c3.796-3.205,8.267-5.37,12.377-8.089
			c6.218-4.114,12.766-7.734,18.925-11.928c2.998-2.041,5.494-1.745,8.206-0.012c8.199,5.239,16.254,10.715,24.594,15.717
			c13.178,7.904,26.072,16.256,39.149,24.315c3.277,2.02,6.355,4.45,10.059,5.705c6.368,2.158,12.762,2.566,18.718-1.063
			c6.713-4.09,13.259-8.538,20.008-12.48c10.76-6.284,21.088-13.244,31.802-19.592c7.166-4.245,14.394-8.534,21.153-13.483
			c1.669-1.222,3.165-1.608,5.106-0.253c3.668,2.562,7.5,4.895,11.31,7.248c6.722,4.15,13.518,8.182,20.203,12.39
			c2.893,1.821,5.056,4.704,5.028,7.996c-0.028,3.229-2.605,5.674-5.344,7.415c-12.377,7.871-24.762,15.729-37.209,23.487
			c-9.884,6.16-19.903,12.103-29.787,18.265c-8.411,5.244-16.707,10.672-25.067,15.998c-7.29,4.644-14.89,8.782-21.949,13.826
			C176.818,233.912,174.551,234.554,173.382,234.935z"/>
		<path d="M171.923,73.276c4.246-0.781,7.355,1.827,10.428,3.905c8.306,5.617,16.904,10.783,25.354,16.157
			c7.905,5.027,15.882,9.995,23.943,14.801c4.136,2.466,8.081,5.251,12.225,7.702c1.684,0.996,1.972,1.638,0.218,2.696
			c-9.03,5.444-17.834,11.266-26.812,16.765c-7.485,4.584-14.848,9.398-22.452,13.81c-5.715,3.316-11.198,7.035-16.763,10.608
			c-3.794,2.436-7.974,2.233-11.867-0.284c-8.741-5.651-17.554-11.191-26.363-16.737c-7.707-4.852-15.364-9.792-23.203-14.424
			c-5.376-3.177-10.24-7.176-15.957-9.798c-1.243-0.57-1.156-1.555,0.293-2.488c5.932-3.819,11.887-7.602,17.862-11.354
			c7.042-4.422,14.106-8.809,21.175-13.188c6.951-4.306,13.928-8.57,20.875-12.883c2.043-1.269,4.004-2.676,6.019-3.981
			C168.577,73.497,170.173,73.4,171.923,73.276z"/>
	</g>
</g>
</svg>
